<svg width="22" height="21" viewBox="0 0 22 21" fill="none" xmlns="http://www.w3.org/2000/svg">
<path d="M0.497803 7.31575C0.497803 5.33049 0.497803 4.33891 1.11464 3.72207C1.73149 3.10522 2.72307 3.10522 4.70833 3.10522H17.3399C19.3252 3.10522 20.3167 3.10522 20.9336 3.72207C21.5504 4.33891 21.5504 5.33049 21.5504 7.31575C21.5504 7.81154 21.5504 8.05996 21.3968 8.2147C21.242 8.36838 20.9925 8.36838 20.4978 8.36838H1.55043C1.05464 8.36838 0.806224 8.36838 0.651487 8.2147C0.497803 8.05996 0.497803 7.81049 0.497803 7.31575ZM0.497803 16.7894C0.497803 18.7747 0.497803 19.7663 1.11464 20.3831C1.73149 21 2.72307 21 4.70833 21H17.3399C19.3252 21 20.3167 21 20.9336 20.3831C21.5504 19.7663 21.5504 18.7747 21.5504 16.7894V11.5263C21.5504 11.0305 21.5504 10.7821 21.3968 10.6273C21.242 10.4736 20.9925 10.4736 20.4978 10.4736H1.55043C1.05464 10.4736 0.806224 10.4736 0.651487 10.6273C0.497803 10.7821 0.497803 11.0315 0.497803 11.5263V16.7894Z" fill="#113858"/>
<path d="M5.76099 1V4.15789M16.2873 1V4.15789" stroke="#113858" stroke-width="2" stroke-linecap="round"/>
</svg>
