<svg width="21" height="20" viewBox="0 0 21 20" fill="none" xmlns="http://www.w3.org/2000/svg">
<path d="M19.1865 14.5067C19.0384 14.4235 18.8927 14.3362 18.7495 14.2447C18.2386 13.9162 17.7495 13.5548 17.2855 13.1627C16.1095 12.1757 14.6155 10.6277 13.3145 8.37574C12.0145 6.12274 11.4215 4.05574 11.1545 2.54274C11.047 1.9445 10.9785 1.33988 10.9495 0.732741C10.9418 0.563526 10.9388 0.394125 10.9405 0.224741C10.9415 0.164741 10.9485 0.0427409 10.9495 0.00974087C9.04267 -0.0793289 7.15043 0.382015 5.49854 1.33874C3.84531 2.28978 2.50025 3.69593 1.62354 5.38974L1.81254 5.49274C1.9192 5.55207 2.06487 5.63941 2.24954 5.75474C2.61654 5.98874 3.12554 6.34274 3.71354 6.83674C4.88954 7.82474 6.38354 9.37174 7.68354 11.6247C8.98454 13.8767 9.57754 15.9447 9.84554 17.4567C9.97854 18.2137 10.0305 18.8317 10.0495 19.2667C10.0595 19.4837 10.0595 19.6557 10.0585 19.7757V19.9907C11.9618 20.0774 13.8499 19.6158 15.4985 18.6607C17.1507 17.7109 18.4953 16.3066 19.3725 14.6147L19.1865 14.5067Z" fill="#113858"/>
<path d="M8.55855 19.8096C8.56045 19.6502 8.55812 19.4908 8.55155 19.3316C8.52703 18.7904 8.46589 18.2515 8.36855 17.7186C8.12755 16.3496 7.58555 14.4526 6.38655 12.3756C5.18655 10.2976 3.81455 8.88055 2.74955 7.98555C2.33712 7.63518 1.90146 7.31311 1.44555 7.02155C1.28655 6.92155 1.11555 6.82255 1.03355 6.77655C0.572816 8.12541 0.406362 9.55731 0.545391 10.9759C0.68442 12.3945 1.12571 13.7668 1.83955 15.0006C2.55106 16.2356 3.51887 17.3039 4.67785 18.1336C5.83682 18.9633 7.16007 19.5341 8.55855 19.8096ZM12.4415 0.190552C12.4397 0.350243 12.4417 0.509956 12.4475 0.669552C12.4646 1.04455 12.5105 1.59655 12.6315 2.28155C12.8726 3.65155 13.4145 5.54755 14.6135 7.62555C15.8135 9.70255 17.1855 11.1196 18.2505 12.0146C18.7825 12.4616 19.2375 12.7766 19.5545 12.9786C19.7135 13.0796 19.8845 13.1786 19.9665 13.2236C20.4271 11.8748 20.5935 10.4431 20.4545 9.02472C20.3155 7.60633 19.8742 6.23417 19.1605 5.00055C18.449 3.7655 17.4812 2.69718 16.3223 1.86749C15.1633 1.0378 13.84 0.465997 12.4415 0.190552Z" fill="#113858"/>
</svg>
