<svg width="18" height="24" viewBox="0 0 18 24" fill="none" xmlns="http://www.w3.org/2000/svg">
<path d="M8.8978 11.4C8.10215 11.4 7.33909 11.0839 6.77648 10.5213C6.21387 9.95871 5.8978 9.19565 5.8978 8.4C5.8978 7.60435 6.21387 6.84129 6.77648 6.27868C7.33909 5.71607 8.10215 5.4 8.8978 5.4C9.69345 5.4 10.4565 5.71607 11.0191 6.27868C11.5817 6.84129 11.8978 7.60435 11.8978 8.4C11.8978 8.79397 11.8202 9.18407 11.6694 9.54805C11.5187 9.91203 11.2977 10.2427 11.0191 10.5213C10.7405 10.7999 10.4098 11.0209 10.0459 11.1716C9.68188 11.3224 9.29177 11.4 8.8978 11.4ZM8.8978 0C6.66998 0 4.53341 0.884997 2.95811 2.4603C1.3828 4.03561 0.497803 6.17218 0.497803 8.4C0.497803 14.7 8.8978 24 8.8978 24C8.8978 24 17.2978 14.7 17.2978 8.4C17.2978 6.17218 16.4128 4.03561 14.8375 2.4603C13.2622 0.884997 11.1256 0 8.8978 0Z" fill="#113858"/>
</svg>
