<svg width="61" height="60" viewBox="0 0 61 60" fill="none" xmlns="http://www.w3.org/2000/svg">
<path opacity="0.21" d="M37.6379 0C50.3404 0.000131685 60.6379 10.2975 60.6379 23V37C60.6379 49.7025 50.3404 59.9999 37.6379 60H23.6379C10.9354 60 0.637939 49.7025 0.637939 37V23C0.637939 10.2975 10.9354 0 23.6379 0H37.6379Z" fill="#FEC53D"/>
<path fill-rule="evenodd" clip-rule="evenodd" d="M17.6379 24.3165L29.183 31.7646C29.3074 31.8448 29.4377 31.9027 29.5704 31.9395V46.3847L18.4613 39.0385C17.951 38.701 17.6379 38.0876 17.6379 37.4249V24.3165ZM44.486 24.1185V37.4249C44.486 38.0876 44.1729 38.701 43.6626 39.0385L32.5535 46.3847V31.8129C32.5806 31.7978 32.6074 31.7817 32.634 31.7646L44.486 24.1185Z" fill="#FEC53D"/>
<path opacity="0.499209" fill-rule="evenodd" clip-rule="evenodd" d="M18.0005 20.7014C18.1415 20.5024 18.3195 20.3343 18.527 20.2108L30.273 13.2201C30.7661 12.9266 31.3576 12.9266 31.8507 13.2201L43.5967 20.2108C43.7567 20.306 43.8991 20.4277 44.0206 20.5697L31.1423 28.8778C31.0576 28.9325 30.9796 28.995 30.9084 29.064C30.8373 28.995 30.7592 28.9325 30.6745 28.8778L18.0005 20.7014Z" fill="#FEC53D"/>
</svg>
