<svg width="22" height="22" viewBox="0 0 22 22" fill="none" xmlns="http://www.w3.org/2000/svg">
<path d="M11 0C8.82441 0 6.69767 0.645139 4.88873 1.85383C3.07979 3.06253 1.66989 4.78049 0.83733 6.79048C0.00476612 8.80047 -0.21307 11.0122 0.211367 13.146C0.635804 15.2798 1.68345 17.2398 3.22183 18.7782C4.76021 20.3165 6.72022 21.3642 8.85401 21.7886C10.9878 22.2131 13.1995 21.9952 15.2095 21.1627C17.2195 20.3301 18.9375 18.9202 20.1462 17.1113C21.3549 15.3023 22 13.1756 22 11C22 9.55546 21.7155 8.12506 21.1627 6.79048C20.6099 5.4559 19.7996 4.24327 18.7782 3.22182C17.7567 2.20038 16.5441 1.39013 15.2095 0.837325C13.8749 0.284523 12.4445 0 11 0ZM11 19.8C9.25953 19.8 7.55814 19.2839 6.11098 18.3169C4.66383 17.35 3.53592 15.9756 2.86986 14.3676C2.20381 12.7596 2.02954 10.9902 2.36909 9.2832C2.70864 7.57617 3.54676 6.00816 4.77746 4.77746C6.00817 3.54676 7.57618 2.70864 9.28321 2.36909C10.9902 2.02954 12.7596 2.20381 14.3676 2.86986C15.9756 3.53591 17.35 4.66383 18.3169 6.11098C19.2839 7.55813 19.8 9.25952 19.8 11C19.8 13.3339 18.8729 15.5722 17.2225 17.2225C15.5722 18.8729 13.3339 19.8 11 19.8Z" fill="white"/>
<path d="M11 5.5C9.9122 5.5 8.84884 5.82257 7.94437 6.42692C7.0399 7.03126 6.33495 7.89025 5.91866 8.89524C5.50238 9.90023 5.39346 11.0061 5.60568 12.073C5.8179 13.1399 6.34173 14.1199 7.11091 14.8891C7.8801 15.6583 8.86011 16.1821 9.927 16.3943C10.9939 16.6065 12.0998 16.4976 13.1048 16.0813C14.1098 15.6651 14.9687 14.9601 15.5731 14.0556C16.1774 13.1512 16.5 12.0878 16.5 11C16.5 9.54131 15.9205 8.14236 14.8891 7.11091C13.8576 6.07946 12.4587 5.5 11 5.5Z" fill="white"/>
</svg>
